<svg xmlns="http://www.w3.org/2000/svg" viewBox="0 0 64 64" fill="none">
  <!-- Bright sun -->
  <circle cx="32" cy="10" r="8" fill="#FBBF24"/>
  <line x1="32" y1="0" x2="32" y2="2" stroke="#F59E0B" stroke-width="2" stroke-linecap="round"/>
  <line x1="22" y1="4" x2="24" y2="5" stroke="#F59E0B" stroke-width="2" stroke-linecap="round"/>
  <line x1="42" y1="4" x2="40" y2="5" stroke="#F59E0B" stroke-width="2" stroke-linecap="round"/>
  <!-- Table -->
  <rect x="8" y="52" width="48" height="4" rx="2" fill="#92400E"/>
  <rect x="14" y="56" width="4" height="6" rx="1" fill="#78350F"/>
  <rect x="46" y="56" width="4" height="6" rx="1" fill="#78350F"/>
  <!-- Plate -->
  <ellipse cx="32" cy="44" rx="18" ry="7" fill="#E5E7EB"/>
  <ellipse cx="32" cy="43" rx="14" ry="5" fill="#F9FAFB"/>
  <!-- Colorful food -->
  <ellipse cx="26" cy="41" rx="5" ry="3" fill="#22C55E"/>
  <ellipse cx="32" cy="40" rx="3" ry="2.5" fill="#EF4444"/>
  <ellipse cx="38" cy="41" rx="4" ry="3" fill="#F59E0B"/>
  <!-- Steam curls -->
  <path d="M26 32 Q28 29 26 26" stroke="#D1D5DB" stroke-width="1.5" fill="none" opacity="0.6"/>
  <path d="M32 31 Q34 28 32 25" stroke="#D1D5DB" stroke-width="1.5" fill="none" opacity="0.6"/>
  <path d="M38 32 Q40 29 38 26" stroke="#D1D5DB" stroke-width="1.5" fill="none" opacity="0.6"/>
</svg>
