<svg xmlns="http://www.w3.org/2000/svg" viewBox="0 0 64 64" fill="none">
  <!-- Warm sky -->
  <rect x="0" y="36" width="64" height="28" rx="6" fill="#FEF3C7"/>
  <!-- Rising sun -->
  <circle cx="32" cy="36" r="14" fill="#F59E0B"/>
  <circle cx="32" cy="36" r="12" fill="#FBBF24"/>
  <!-- Rays -->
  <line x1="32" y1="14" x2="32" y2="20" stroke="#F59E0B" stroke-width="2.5" stroke-linecap="round"/>
  <line x1="16" y1="22" x2="20" y2="26" stroke="#F59E0B" stroke-width="2.5" stroke-linecap="round"/>
  <line x1="48" y1="22" x2="44" y2="26" stroke="#F59E0B" stroke-width="2.5" stroke-linecap="round"/>
  <!-- Coffee cup -->
  <rect x="8" y="44" width="12" height="12" rx="3" fill="#92400E"/>
  <rect x="10" y="46" width="8" height="8" rx="2" fill="#78350F"/>
  <path d="M20 47 Q25 47 25 50 Q25 53 20 53" stroke="#92400E" stroke-width="2" fill="none"/>
  <!-- Steam -->
  <path d="M12 40 Q13.5 37 12 34" stroke="#D1D5DB" stroke-width="1.5" fill="none" opacity="0.7"/>
  <path d="M15 39 Q16.5 36 15 33" stroke="#D1D5DB" stroke-width="1.5" fill="none" opacity="0.7"/>
  <path d="M18 40 Q19.5 37 18 34" stroke="#D1D5DB" stroke-width="1.5" fill="none" opacity="0.7"/>
  <!-- Small birds -->
  <path d="M42 10 Q44 8 46 10" stroke="#475569" stroke-width="1.2" fill="none"/>
  <path d="M48 8 Q50 6 52 8" stroke="#475569" stroke-width="1.2" fill="none"/>
</svg>
